<svg width="1056" height="241" viewBox="0 0 1056 241" fill="none" xmlns="http://www.w3.org/2000/svg">
<path d="M25.5 11.5H50V25H1056V231L296.5 223.5L285.5 240.5H50L14 210.5V166L25.5 152.5V11.5Z" fill="#0068FF"/>
<path d="M12.5 1H37V14.5H1043V220.5L283.5 213L272.5 230H37L1 200V155.5L12.5 142V1Z" fill="white" stroke="black"/>
<rect x="479.982" y="85" width="435.018" height="124" rx="20" fill="#0068FF"/>
<rect x="476.5" y="78.5" width="434.018" height="123" rx="19.5" fill="url(#paint0_linear_506_4)" stroke="white"/>
<mask id="path-5-outside-1_506_4" maskUnits="userSpaceOnUse" x="570.678" y="108" width="202" height="62" fill="black">
<rect fill="white" x="570.678" y="108" width="202" height="62"/>
<path d="M589.046 168.872C583.883 168.872 579.979 167.763 577.334 165.544C574.688 163.283 573.131 159.827 572.662 155.176C572.619 154.28 572.832 153.597 573.302 153.128C573.771 152.616 574.454 152.36 575.35 152.36C576.203 152.36 576.843 152.595 577.27 153.064C577.739 153.491 577.995 154.152 578.038 155.048C578.379 158.163 579.382 160.36 581.046 161.64C582.752 162.877 585.419 163.496 589.046 163.496H610.038C614.262 163.496 617.163 162.685 618.742 161.064C620.363 159.4 621.174 156.499 621.174 152.36C621.174 148.179 620.363 145.277 618.742 143.656C617.163 142.035 614.262 141.224 610.038 141.224H589.302C583.926 141.224 579.958 139.965 577.398 137.448C574.838 134.931 573.558 130.984 573.558 125.608C573.558 120.147 574.838 116.157 577.398 113.64C579.958 111.123 583.926 109.864 589.302 109.864H609.398C618.955 109.864 624.118 114.131 624.886 122.664C625.014 123.56 624.843 124.264 624.374 124.776C623.904 125.245 623.222 125.48 622.326 125.48C621.43 125.48 620.768 125.267 620.342 124.84C619.915 124.371 619.638 123.688 619.51 122.792C619.254 119.976 618.358 118.013 616.822 116.904C615.286 115.795 612.811 115.24 609.398 115.24H589.302C585.419 115.24 582.71 115.987 581.174 117.48C579.68 118.973 578.934 121.683 578.934 125.608C578.934 129.448 579.68 132.115 581.174 133.608C582.71 135.101 585.419 135.848 589.302 135.848H610.038C615.755 135.848 619.936 137.171 622.582 139.816C625.227 142.461 626.55 146.643 626.55 152.36C626.55 158.035 625.227 162.216 622.582 164.904C619.936 167.549 615.755 168.872 610.038 168.872H589.046ZM666.872 169C659.064 169 653.368 167.229 649.784 163.688C646.242 160.104 644.472 154.451 644.472 146.728V132.392C644.472 124.499 646.242 118.781 649.784 115.24C653.368 111.656 659.064 109.907 666.872 109.992H677.368C685.176 109.992 690.85 111.784 694.392 115.368C697.976 118.909 699.768 124.584 699.768 132.392V146.6C699.768 154.408 697.976 160.104 694.392 163.688C690.85 167.229 685.176 169 677.368 169H666.872ZM649.848 146.728C649.848 152.915 651.106 157.288 653.624 159.848C656.184 162.365 660.6 163.624 666.872 163.624H677.368C683.64 163.624 688.034 162.365 690.552 159.848C693.112 157.288 694.392 152.872 694.392 146.6V132.392C694.392 126.12 693.112 121.725 690.552 119.208C688.034 116.648 683.64 115.368 677.368 115.368H666.872C662.69 115.325 659.341 115.859 656.824 116.968C654.349 118.035 652.557 119.827 651.448 122.344C650.381 124.819 649.848 128.168 649.848 132.392V146.728ZM734.046 168.872C728.883 168.872 724.979 167.763 722.334 165.544C719.688 163.283 718.131 159.827 717.662 155.176C717.619 154.28 717.832 153.597 718.302 153.128C718.771 152.616 719.454 152.36 720.35 152.36C721.203 152.36 721.843 152.595 722.27 153.064C722.739 153.491 722.995 154.152 723.038 155.048C723.379 158.163 724.382 160.36 726.046 161.64C727.752 162.877 730.419 163.496 734.046 163.496H755.038C759.262 163.496 762.163 162.685 763.742 161.064C765.363 159.4 766.174 156.499 766.174 152.36C766.174 148.179 765.363 145.277 763.742 143.656C762.163 142.035 759.262 141.224 755.038 141.224H734.302C728.926 141.224 724.958 139.965 722.398 137.448C719.838 134.931 718.558 130.984 718.558 125.608C718.558 120.147 719.838 116.157 722.398 113.64C724.958 111.123 728.926 109.864 734.302 109.864H754.398C763.955 109.864 769.118 114.131 769.886 122.664C770.014 123.56 769.843 124.264 769.374 124.776C768.904 125.245 768.222 125.48 767.326 125.48C766.43 125.48 765.768 125.267 765.342 124.84C764.915 124.371 764.638 123.688 764.51 122.792C764.254 119.976 763.358 118.013 761.822 116.904C760.286 115.795 757.811 115.24 754.398 115.24H734.302C730.419 115.24 727.71 115.987 726.174 117.48C724.68 118.973 723.934 121.683 723.934 125.608C723.934 129.448 724.68 132.115 726.174 133.608C727.71 135.101 730.419 135.848 734.302 135.848H755.038C760.755 135.848 764.936 137.171 767.582 139.816C770.227 142.461 771.55 146.643 771.55 152.36C771.55 158.035 770.227 162.216 767.582 164.904C764.936 167.549 760.755 168.872 755.038 168.872H734.046Z"/>
</mask>
<path d="M589.046 168.872C583.883 168.872 579.979 167.763 577.334 165.544C574.688 163.283 573.131 159.827 572.662 155.176C572.619 154.28 572.832 153.597 573.302 153.128C573.771 152.616 574.454 152.36 575.35 152.36C576.203 152.36 576.843 152.595 577.27 153.064C577.739 153.491 577.995 154.152 578.038 155.048C578.379 158.163 579.382 160.36 581.046 161.64C582.752 162.877 585.419 163.496 589.046 163.496H610.038C614.262 163.496 617.163 162.685 618.742 161.064C620.363 159.4 621.174 156.499 621.174 152.36C621.174 148.179 620.363 145.277 618.742 143.656C617.163 142.035 614.262 141.224 610.038 141.224H589.302C583.926 141.224 579.958 139.965 577.398 137.448C574.838 134.931 573.558 130.984 573.558 125.608C573.558 120.147 574.838 116.157 577.398 113.64C579.958 111.123 583.926 109.864 589.302 109.864H609.398C618.955 109.864 624.118 114.131 624.886 122.664C625.014 123.56 624.843 124.264 624.374 124.776C623.904 125.245 623.222 125.48 622.326 125.48C621.43 125.48 620.768 125.267 620.342 124.84C619.915 124.371 619.638 123.688 619.51 122.792C619.254 119.976 618.358 118.013 616.822 116.904C615.286 115.795 612.811 115.24 609.398 115.24H589.302C585.419 115.24 582.71 115.987 581.174 117.48C579.68 118.973 578.934 121.683 578.934 125.608C578.934 129.448 579.68 132.115 581.174 133.608C582.71 135.101 585.419 135.848 589.302 135.848H610.038C615.755 135.848 619.936 137.171 622.582 139.816C625.227 142.461 626.55 146.643 626.55 152.36C626.55 158.035 625.227 162.216 622.582 164.904C619.936 167.549 615.755 168.872 610.038 168.872H589.046ZM666.872 169C659.064 169 653.368 167.229 649.784 163.688C646.242 160.104 644.472 154.451 644.472 146.728V132.392C644.472 124.499 646.242 118.781 649.784 115.24C653.368 111.656 659.064 109.907 666.872 109.992H677.368C685.176 109.992 690.85 111.784 694.392 115.368C697.976 118.909 699.768 124.584 699.768 132.392V146.6C699.768 154.408 697.976 160.104 694.392 163.688C690.85 167.229 685.176 169 677.368 169H666.872ZM649.848 146.728C649.848 152.915 651.106 157.288 653.624 159.848C656.184 162.365 660.6 163.624 666.872 163.624H677.368C683.64 163.624 688.034 162.365 690.552 159.848C693.112 157.288 694.392 152.872 694.392 146.6V132.392C694.392 126.12 693.112 121.725 690.552 119.208C688.034 116.648 683.64 115.368 677.368 115.368H666.872C662.69 115.325 659.341 115.859 656.824 116.968C654.349 118.035 652.557 119.827 651.448 122.344C650.381 124.819 649.848 128.168 649.848 132.392V146.728ZM734.046 168.872C728.883 168.872 724.979 167.763 722.334 165.544C719.688 163.283 718.131 159.827 717.662 155.176C717.619 154.28 717.832 153.597 718.302 153.128C718.771 152.616 719.454 152.36 720.35 152.36C721.203 152.36 721.843 152.595 722.27 153.064C722.739 153.491 722.995 154.152 723.038 155.048C723.379 158.163 724.382 160.36 726.046 161.64C727.752 162.877 730.419 163.496 734.046 163.496H755.038C759.262 163.496 762.163 162.685 763.742 161.064C765.363 159.4 766.174 156.499 766.174 152.36C766.174 148.179 765.363 145.277 763.742 143.656C762.163 142.035 759.262 141.224 755.038 141.224H734.302C728.926 141.224 724.958 139.965 722.398 137.448C719.838 134.931 718.558 130.984 718.558 125.608C718.558 120.147 719.838 116.157 722.398 113.64C724.958 111.123 728.926 109.864 734.302 109.864H754.398C763.955 109.864 769.118 114.131 769.886 122.664C770.014 123.56 769.843 124.264 769.374 124.776C768.904 125.245 768.222 125.48 767.326 125.48C766.43 125.48 765.768 125.267 765.342 124.84C764.915 124.371 764.638 123.688 764.51 122.792C764.254 119.976 763.358 118.013 761.822 116.904C760.286 115.795 757.811 115.24 754.398 115.24H734.302C730.419 115.24 727.71 115.987 726.174 117.48C724.68 118.973 723.934 121.683 723.934 125.608C723.934 129.448 724.68 132.115 726.174 133.608C727.71 135.101 730.419 135.848 734.302 135.848H755.038C760.755 135.848 764.936 137.171 767.582 139.816C770.227 142.461 771.55 146.643 771.55 152.36C771.55 158.035 770.227 162.216 767.582 164.904C764.936 167.549 760.755 168.872 755.038 168.872H734.046Z" fill="black"/>
<path d="M577.334 165.544L576.684 166.304L576.691 166.31L577.334 165.544ZM572.662 155.176L571.663 155.224L571.664 155.25L571.667 155.276L572.662 155.176ZM573.302 153.128L574.009 153.835L574.024 153.82L574.039 153.804L573.302 153.128ZM577.27 153.064L576.53 153.737L576.562 153.772L576.597 153.804L577.27 153.064ZM578.038 155.048L577.039 155.096L577.04 155.126L577.044 155.157L578.038 155.048ZM581.046 161.64L580.436 162.433L580.447 162.441L580.459 162.45L581.046 161.64ZM618.742 161.064L618.025 160.366L618.025 160.366L618.742 161.064ZM618.742 143.656L618.025 144.354L618.034 144.363L618.742 143.656ZM577.398 113.64L576.696 112.927L577.398 113.64ZM624.886 122.664L623.89 122.754L623.892 122.78L623.896 122.805L624.886 122.664ZM624.374 124.776L625.081 125.483L625.096 125.468L625.111 125.452L624.374 124.776ZM620.342 124.84L619.602 125.513L619.618 125.53L619.634 125.547L620.342 124.84ZM619.51 122.792L618.514 122.883L618.516 122.908L618.52 122.933L619.51 122.792ZM616.822 116.904L616.236 117.715L616.822 116.904ZM581.174 117.48L580.476 116.763L580.466 116.773L581.174 117.48ZM581.174 133.608L580.466 134.315L580.477 134.325L581.174 133.608ZM622.582 139.816L621.874 140.523L622.582 139.816ZM622.582 164.904L623.289 165.611L623.294 165.605L622.582 164.904ZM589.046 167.872C584.006 167.872 580.371 166.786 577.976 164.778L576.691 166.31C579.587 168.739 583.76 169.872 589.046 169.872V167.872ZM577.983 164.784C575.593 162.741 574.109 159.56 573.657 155.076L571.667 155.276C572.153 160.093 573.783 163.825 576.684 166.304L577.983 164.784ZM573.66 155.128C573.626 154.411 573.802 154.042 574.009 153.835L572.594 152.421C571.863 153.152 571.612 154.149 571.663 155.224L573.66 155.128ZM574.039 153.804C574.267 153.554 574.648 153.36 575.35 153.36V151.36C574.259 151.36 573.274 151.678 572.564 152.452L574.039 153.804ZM575.35 153.36C576.023 153.36 576.352 153.541 576.53 153.737L578.01 152.391C577.334 151.649 576.383 151.36 575.35 151.36V153.36ZM576.597 153.804C576.801 153.989 577.003 154.354 577.039 155.096L579.036 155C578.986 153.95 578.677 152.992 577.942 152.324L576.597 153.804ZM577.044 155.157C577.4 158.409 578.469 160.92 580.436 162.433L581.655 160.847C580.294 159.8 579.358 157.916 579.032 154.939L577.044 155.157ZM580.459 162.45C582.42 163.872 585.344 164.496 589.046 164.496V162.496C585.494 162.496 583.084 161.883 581.633 160.83L580.459 162.45ZM589.046 164.496H610.038V162.496H589.046V164.496ZM610.038 164.496C614.321 164.496 617.583 163.688 619.458 161.762L618.025 160.366C616.743 161.683 614.202 162.496 610.038 162.496V164.496ZM619.458 161.762C621.359 159.811 622.174 156.573 622.174 152.36H620.174C620.174 156.424 619.367 158.989 618.025 160.366L619.458 161.762ZM622.174 152.36C622.174 148.112 621.362 144.862 619.449 142.949L618.034 144.363C619.364 145.692 620.174 148.246 620.174 152.36H622.174ZM619.458 142.958C617.583 141.032 614.321 140.224 610.038 140.224V142.224C614.202 142.224 616.743 143.037 618.025 144.354L619.458 142.958ZM610.038 140.224H589.302V142.224H610.038V140.224ZM589.302 140.224C584.059 140.224 580.397 138.994 578.099 136.735L576.696 138.161C579.519 140.936 583.792 142.224 589.302 142.224V140.224ZM578.099 136.735C575.807 134.482 574.558 130.848 574.558 125.608H572.558C572.558 131.12 573.868 135.38 576.696 138.161L578.099 136.735ZM574.558 125.608C574.558 120.277 575.81 116.604 578.099 114.353L576.696 112.927C573.865 115.711 572.558 120.016 572.558 125.608H574.558ZM578.099 114.353C580.397 112.094 584.059 110.864 589.302 110.864V108.864C583.792 108.864 579.519 110.152 576.696 112.927L578.099 114.353ZM589.302 110.864H609.398V108.864H589.302V110.864ZM609.398 110.864C614.041 110.864 617.461 111.902 619.801 113.835C622.123 115.754 623.523 118.675 623.89 122.754L625.882 122.574C625.481 118.12 623.915 114.641 621.075 112.293C618.251 109.96 614.311 108.864 609.398 108.864V110.864ZM623.896 122.805C623.995 123.502 623.846 123.872 623.636 124.1L625.111 125.452C625.84 124.656 626.032 123.618 625.876 122.523L623.896 122.805ZM623.666 124.069C623.443 124.293 623.052 124.48 622.326 124.48V126.48C623.391 126.48 624.366 126.198 625.081 125.483L623.666 124.069ZM622.326 124.48C621.567 124.48 621.214 124.298 621.049 124.133L619.634 125.547C620.323 126.236 621.292 126.48 622.326 126.48V124.48ZM621.082 124.167C620.836 123.897 620.611 123.43 620.5 122.651L618.52 122.933C618.664 123.946 618.994 124.844 619.602 125.513L621.082 124.167ZM620.505 122.701C620.236 119.741 619.274 117.441 617.407 116.093L616.236 117.715C617.442 118.585 618.271 120.211 618.514 122.883L620.505 122.701ZM617.407 116.093C615.611 114.796 612.874 114.24 609.398 114.24V116.24C612.748 116.24 614.96 116.793 616.236 117.715L617.407 116.093ZM609.398 114.24H589.302V116.24H609.398V114.24ZM589.302 114.24C585.35 114.24 582.302 114.988 580.477 116.763L581.871 118.197C583.117 116.985 585.488 116.24 589.302 116.24V114.24ZM580.466 116.773C578.678 118.561 577.934 121.622 577.934 125.608H579.934C579.934 121.743 580.682 119.386 581.881 118.187L580.466 116.773ZM577.934 125.608C577.934 129.516 578.681 132.53 580.466 134.315L581.881 132.901C580.679 131.699 579.934 129.38 579.934 125.608H577.934ZM580.477 134.325C582.302 136.1 585.35 136.848 589.302 136.848V134.848C585.488 134.848 583.117 134.103 581.871 132.891L580.477 134.325ZM589.302 136.848H610.038V134.848H589.302V136.848ZM610.038 136.848C615.627 136.848 619.495 138.144 621.874 140.523L623.289 139.109C620.377 136.197 615.883 134.848 610.038 134.848V136.848ZM621.874 140.523C624.253 142.902 625.55 146.77 625.55 152.36H627.55C627.55 146.515 626.2 142.021 623.289 139.109L621.874 140.523ZM625.55 152.36C625.55 157.903 624.255 161.778 621.869 164.203L623.294 165.605C626.199 162.654 627.55 158.167 627.55 152.36H625.55ZM621.874 164.197C619.495 166.576 615.627 167.872 610.038 167.872V169.872C615.883 169.872 620.377 168.523 623.289 165.611L621.874 164.197ZM610.038 167.872H589.046V169.872H610.038V167.872ZM649.784 163.688L649.072 164.391L649.081 164.399L649.784 163.688ZM649.784 115.24L649.076 114.533L649.784 115.24ZM666.872 109.992L666.861 110.992H666.872V109.992ZM694.392 115.368L693.68 116.071L693.689 116.079L694.392 115.368ZM694.392 163.688L695.099 164.395L694.392 163.688ZM653.624 159.848L652.911 160.549L652.916 160.555L652.922 160.561L653.624 159.848ZM690.552 159.848L691.259 160.555L690.552 159.848ZM690.552 119.208L689.839 119.909L689.844 119.915L689.85 119.921L690.552 119.208ZM666.872 115.368L666.861 116.368H666.872V115.368ZM656.824 116.968L657.219 117.886L657.227 117.883L656.824 116.968ZM651.448 122.344L650.532 121.941L650.529 121.948L651.448 122.344ZM666.872 168C659.186 168 653.803 166.253 650.486 162.977L649.081 164.399C652.933 168.205 658.941 170 666.872 170V168ZM650.495 162.985C647.217 159.667 645.472 154.325 645.472 146.728H643.472C643.472 154.577 645.268 160.541 649.072 164.391L650.495 162.985ZM645.472 146.728V132.392H643.472V146.728H645.472ZM645.472 132.392C645.472 124.616 647.221 119.217 650.491 115.947L649.076 114.533C645.264 118.345 643.472 124.381 643.472 132.392H645.472ZM650.491 115.947C653.803 112.635 659.179 110.908 666.861 110.992L666.883 108.992C658.948 108.905 652.932 110.677 649.076 114.533L650.491 115.947ZM666.872 110.992H677.368V108.992H666.872V110.992ZM677.368 110.992C685.052 110.992 690.408 112.759 693.68 116.071L695.103 114.665C691.292 110.809 685.299 108.992 677.368 108.992V110.992ZM693.689 116.079C697 119.351 698.768 124.708 698.768 132.392H700.768C700.768 124.46 698.951 118.467 695.094 114.657L693.689 116.079ZM698.768 132.392V146.6H700.768V132.392H698.768ZM698.768 146.6C698.768 154.283 697.001 159.664 693.684 162.981L695.099 164.395C698.95 160.543 700.768 154.533 700.768 146.6H698.768ZM693.684 162.981C690.413 166.253 685.055 168 677.368 168V170C685.297 170 691.288 168.206 695.099 164.395L693.684 162.981ZM677.368 168H666.872V170H677.368V168ZM648.848 146.728C648.848 153.001 650.115 157.706 652.911 160.549L654.337 159.147C652.098 156.87 650.848 152.829 650.848 146.728H648.848ZM652.922 160.561C655.768 163.359 660.518 164.624 666.872 164.624V162.624C660.681 162.624 656.599 161.372 654.325 159.135L652.922 160.561ZM666.872 164.624H677.368V162.624H666.872V164.624ZM677.368 164.624C683.718 164.624 688.454 163.36 691.259 160.555L689.844 159.141C687.615 161.371 683.561 162.624 677.368 162.624V164.624ZM691.259 160.555C694.104 157.71 695.392 152.957 695.392 146.6H693.392C693.392 152.787 692.119 156.866 689.844 159.141L691.259 160.555ZM695.392 146.6V132.392H693.392V146.6H695.392ZM695.392 132.392C695.392 126.038 694.105 121.3 691.253 118.495L689.85 119.921C692.118 122.151 693.392 126.202 693.392 132.392H695.392ZM691.265 118.507C688.46 115.655 683.722 114.368 677.368 114.368V116.368C683.557 116.368 687.608 117.641 689.839 119.909L691.265 118.507ZM677.368 114.368H666.872V116.368H677.368V114.368ZM666.882 114.368C662.625 114.325 659.118 114.864 656.42 116.053L657.227 117.883C659.564 116.853 662.755 116.326 666.861 116.368L666.882 114.368ZM656.428 116.05C653.716 117.219 651.741 119.198 650.533 121.941L652.363 122.747C653.373 120.456 654.982 118.851 657.219 117.886L656.428 116.05ZM650.529 121.948C649.387 124.599 648.848 128.101 648.848 132.392H650.848C650.848 128.235 651.375 125.039 652.366 122.74L650.529 121.948ZM648.848 132.392V146.728H650.848V132.392H648.848ZM722.334 165.544L721.684 166.304L721.691 166.31L722.334 165.544ZM717.662 155.176L716.663 155.224L716.664 155.25L716.667 155.276L717.662 155.176ZM718.302 153.128L719.009 153.835L719.024 153.82L719.039 153.804L718.302 153.128ZM722.27 153.064L721.53 153.737L721.562 153.772L721.597 153.804L722.27 153.064ZM723.038 155.048L722.039 155.096L722.04 155.126L722.044 155.157L723.038 155.048ZM726.046 161.64L725.436 162.433L725.447 162.441L725.459 162.45L726.046 161.64ZM763.742 161.064L763.025 160.366L763.025 160.366L763.742 161.064ZM763.742 143.656L763.025 144.354L763.034 144.363L763.742 143.656ZM722.398 113.64L721.696 112.927L722.398 113.64ZM769.886 122.664L768.89 122.754L768.892 122.78L768.896 122.805L769.886 122.664ZM769.374 124.776L770.081 125.483L770.096 125.468L770.111 125.452L769.374 124.776ZM765.342 124.84L764.602 125.513L764.618 125.53L764.634 125.547L765.342 124.84ZM764.51 122.792L763.514 122.883L763.516 122.908L763.52 122.933L764.51 122.792ZM761.822 116.904L761.236 117.715L761.822 116.904ZM726.174 117.48L725.476 116.763L725.466 116.773L726.174 117.48ZM726.174 133.608L725.466 134.315L725.477 134.325L726.174 133.608ZM767.582 139.816L766.874 140.523L767.582 139.816ZM767.582 164.904L768.289 165.611L768.294 165.605L767.582 164.904ZM734.046 167.872C729.006 167.872 725.371 166.786 722.976 164.778L721.691 166.31C724.587 168.739 728.76 169.872 734.046 169.872V167.872ZM722.983 164.784C720.593 162.741 719.109 159.56 718.657 155.076L716.667 155.276C717.153 160.093 718.783 163.825 721.684 166.304L722.983 164.784ZM718.66 155.128C718.626 154.411 718.802 154.042 719.009 153.835L717.594 152.421C716.863 153.152 716.612 154.149 716.663 155.224L718.66 155.128ZM719.039 153.804C719.267 153.554 719.648 153.36 720.35 153.36V151.36C719.259 151.36 718.274 151.678 717.564 152.452L719.039 153.804ZM720.35 153.36C721.023 153.36 721.352 153.541 721.53 153.737L723.01 152.391C722.334 151.649 721.383 151.36 720.35 151.36V153.36ZM721.597 153.804C721.801 153.989 722.003 154.354 722.039 155.096L724.036 155C723.986 153.95 723.677 152.992 722.942 152.324L721.597 153.804ZM722.044 155.157C722.4 158.409 723.469 160.92 725.436 162.433L726.655 160.847C725.294 159.8 724.358 157.916 724.032 154.939L722.044 155.157ZM725.459 162.45C727.42 163.872 730.344 164.496 734.046 164.496V162.496C730.494 162.496 728.084 161.883 726.633 160.83L725.459 162.45ZM734.046 164.496H755.038V162.496H734.046V164.496ZM755.038 164.496C759.321 164.496 762.583 163.688 764.458 161.762L763.025 160.366C761.743 161.683 759.202 162.496 755.038 162.496V164.496ZM764.458 161.762C766.359 159.811 767.174 156.573 767.174 152.36H765.174C765.174 156.424 764.367 158.989 763.025 160.366L764.458 161.762ZM767.174 152.36C767.174 148.112 766.362 144.862 764.449 142.949L763.034 144.363C764.364 145.692 765.174 148.246 765.174 152.36H767.174ZM764.458 142.958C762.583 141.032 759.321 140.224 755.038 140.224V142.224C759.202 142.224 761.743 143.037 763.025 144.354L764.458 142.958ZM755.038 140.224H734.302V142.224H755.038V140.224ZM734.302 140.224C729.059 140.224 725.397 138.994 723.099 136.735L721.696 138.161C724.519 140.936 728.792 142.224 734.302 142.224V140.224ZM723.099 136.735C720.807 134.482 719.558 130.848 719.558 125.608H717.558C717.558 131.12 718.868 135.38 721.696 138.161L723.099 136.735ZM719.558 125.608C719.558 120.277 720.81 116.604 723.099 114.353L721.696 112.927C718.865 115.711 717.558 120.016 717.558 125.608H719.558ZM723.099 114.353C725.397 112.094 729.059 110.864 734.302 110.864V108.864C728.792 108.864 724.519 110.152 721.696 112.927L723.099 114.353ZM734.302 110.864H754.398V108.864H734.302V110.864ZM754.398 110.864C759.041 110.864 762.461 111.902 764.801 113.835C767.123 115.754 768.523 118.675 768.89 122.754L770.882 122.574C770.481 118.12 768.915 114.641 766.075 112.293C763.251 109.96 759.311 108.864 754.398 108.864V110.864ZM768.896 122.805C768.995 123.502 768.846 123.872 768.636 124.1L770.111 125.452C770.84 124.656 771.032 123.618 770.876 122.523L768.896 122.805ZM768.666 124.069C768.443 124.293 768.052 124.48 767.326 124.48V126.48C768.391 126.48 769.366 126.198 770.081 125.483L768.666 124.069ZM767.326 124.48C766.567 124.48 766.214 124.298 766.049 124.133L764.634 125.547C765.323 126.236 766.292 126.48 767.326 126.48V124.48ZM766.082 124.167C765.836 123.897 765.611 123.43 765.5 122.651L763.52 122.933C763.664 123.946 763.994 124.844 764.602 125.513L766.082 124.167ZM765.505 122.701C765.236 119.741 764.274 117.441 762.407 116.093L761.236 117.715C762.442 118.585 763.271 120.211 763.514 122.883L765.505 122.701ZM762.407 116.093C760.611 114.796 757.874 114.24 754.398 114.24V116.24C757.748 116.24 759.96 116.793 761.236 117.715L762.407 116.093ZM754.398 114.24H734.302V116.24H754.398V114.24ZM734.302 114.24C730.35 114.24 727.302 114.988 725.477 116.763L726.871 118.197C728.117 116.985 730.488 116.24 734.302 116.24V114.24ZM725.466 116.773C723.678 118.561 722.934 121.622 722.934 125.608H724.934C724.934 121.743 725.682 119.386 726.881 118.187L725.466 116.773ZM722.934 125.608C722.934 129.516 723.681 132.53 725.466 134.315L726.881 132.901C725.679 131.699 724.934 129.38 724.934 125.608H722.934ZM725.477 134.325C727.302 136.1 730.35 136.848 734.302 136.848V134.848C730.488 134.848 728.117 134.103 726.871 132.891L725.477 134.325ZM734.302 136.848H755.038V134.848H734.302V136.848ZM755.038 136.848C760.627 136.848 764.495 138.144 766.874 140.523L768.289 139.109C765.377 136.197 760.883 134.848 755.038 134.848V136.848ZM766.874 140.523C769.253 142.902 770.55 146.77 770.55 152.36H772.55C772.55 146.515 771.2 142.021 768.289 139.109L766.874 140.523ZM770.55 152.36C770.55 157.903 769.255 161.778 766.869 164.203L768.294 165.605C771.199 162.654 772.55 158.167 772.55 152.36H770.55ZM766.874 164.197C764.495 166.576 760.627 167.872 755.038 167.872V169.872C760.883 169.872 765.377 168.523 768.289 165.611L766.874 164.197ZM755.038 167.872H734.046V169.872H755.038V167.872Z" fill="white" mask="url(#path-5-outside-1_506_4)"/>
<path d="M795.023 182.024C794.879 182.024 794.759 181.976 794.663 181.88C794.567 181.784 794.519 181.664 794.519 181.52V167.792H789.263C789.119 167.792 788.999 167.744 788.903 167.648C788.807 167.552 788.759 167.432 788.759 167.288C788.759 167.144 788.807 167.024 788.903 166.928C788.999 166.832 789.119 166.784 789.263 166.784H800.783C800.927 166.784 801.047 166.832 801.143 166.928C801.239 167.024 801.287 167.144 801.287 167.288C801.287 167.432 801.239 167.552 801.143 167.648C801.047 167.744 800.927 167.792 800.783 167.792H795.527V181.52C795.527 181.664 795.479 181.784 795.383 181.88C795.287 181.976 795.167 182.024 795.023 182.024ZM804.305 182C803.969 182 803.801 181.832 803.801 181.496V167.312C803.801 166.976 803.969 166.808 804.305 166.808H813.425C813.761 166.808 813.929 166.976 813.929 167.312C813.929 167.648 813.761 167.816 813.425 167.816H804.809V173.792H810.593C810.929 173.792 811.097 173.96 811.097 174.296C811.097 174.632 810.929 174.8 810.593 174.8H804.809V180.992H813.425C813.761 180.992 813.929 181.16 813.929 181.496C813.929 181.832 813.761 182 813.425 182H804.305ZM815.558 181.952C815.262 181.808 815.174 181.584 815.294 181.28L821.318 167.192C821.414 166.936 821.606 166.808 821.894 166.808H821.966C822.23 166.808 822.422 166.936 822.542 167.192L828.542 181.28C828.678 181.584 828.59 181.808 828.278 181.952C827.974 182.08 827.758 181.992 827.63 181.688L825.938 177.704H817.946L816.23 181.688C816.102 181.992 815.878 182.08 815.558 181.952ZM818.378 176.696H825.506L821.966 168.392L818.378 176.696ZM831.751 182C831.415 182 831.247 181.832 831.247 181.496V167.312C831.247 166.976 831.415 166.808 831.751 166.808C832.015 166.808 832.215 166.92 832.351 167.144L838.423 176.48L838.183 176.504L844.255 167.144C844.391 166.92 844.591 166.808 844.855 166.808C845.175 166.808 845.335 166.976 845.335 167.312V181.496C845.335 181.832 845.167 182 844.831 182C844.495 182 844.327 181.832 844.327 181.496V168.32L844.615 168.416L838.903 177.2C838.767 177.424 838.567 177.536 838.303 177.536C838.039 177.536 837.839 177.424 837.703 177.2L831.991 168.416L832.255 168.536V181.496C832.255 181.832 832.087 182 831.751 182Z" fill="black"/>
<line x1="827.399" y1="119.5" x2="857.263" y2="119.5" stroke="white"/>
<line x1="842.831" y1="105" x2="842.831" y2="135" stroke="white"/>
<defs>
<linearGradient id="paint0_linear_506_4" x1="693.509" y1="78" x2="693.509" y2="202" gradientUnits="userSpaceOnUse">
<stop stop-color="#0068FF"/>
<stop offset="1" stop-color="#02C166"/>
</linearGradient>
</defs>
</svg>
