<svg width="949" height="279" viewBox="0 0 949 279" fill="none" xmlns="http://www.w3.org/2000/svg">
<path d="M895 5H78.5V196.5H20.5V242.5H469.5L525.5 278.5H811L841 242.5H895V196.5H948.5V55L895 5Z" fill="#0068FF" fill-opacity="0.15"/>
<path d="M48.5 164.5V55H20.5V164.5H48.5Z" fill="#0068FF" fill-opacity="0.15"/>
<path d="M895 5H78.5V196.5H20.5V242.5H469.5L525.5 278.5H811L841 242.5H895V196.5H948.5V55L895 5Z" stroke="black"/>
<path d="M48.5 164.5V55H20.5V164.5H48.5Z" stroke="black"/>
<rect x="20.5" y="7.5" width="27" height="35" fill="white" stroke="black"/>
<path d="M948.5 29L920.5 3H948.5V29Z" fill="white" stroke="black"/>
<rect x="525.5" y="241.5" width="281" height="21" fill="#0068FF" stroke="black"/>
<rect x="28" y="14" width="12" height="19" fill="black"/>
<path d="M214.163 18C227.663 18 244.33 26.8333 264.163 44.5C291.163 75.8333 304.663 108.333 304.663 142C304.663 175.5 288.246 198.417 255.413 210.75L248.413 211.75C230.746 211.75 216.913 198.917 206.913 173.25H206.413C200.58 194.083 192.746 204.5 182.913 204.5H181.413C168.413 204.5 159.496 180 154.663 131V116.5C154.996 99.1667 159.913 89.25 169.413 86.75C172.08 86.75 174.496 89.3333 176.663 94.5C171.83 101.167 169.413 109 169.413 118V120.25C169.413 151.083 173.913 174 182.913 189C189.58 184.167 194.496 164.333 197.663 129.5C197.663 101.333 199.746 87.25 203.913 87.25L206.413 86.75C211.913 86.75 214.663 92.1667 214.663 103L213.163 130.5C213.163 149 218.913 168.25 230.413 188.25C236.08 193.917 241.83 196.75 247.663 196.75C257.163 196.75 267.33 190.833 278.163 179C285.83 168.833 289.663 156 289.663 140.5C289.663 106.167 274.58 74.6667 244.413 46C236.58 39.6667 224.58 34.5 208.413 30.5L206.413 25.75C207.58 20.5833 210.163 18 214.163 18ZM336.843 107.25C343.509 107.417 354.759 119.083 370.593 142.25L371.093 146.5C371.093 151.167 359.676 154.75 336.843 157.25L336.093 158V159C339.593 174 343.259 181.5 347.093 181.5H350.093C355.426 181.5 363.509 175.75 374.343 164.25H375.843C379.176 164.25 381.759 166.667 383.593 171.5C383.593 175.5 376.593 182.417 362.593 192.25C358.926 194.417 354.509 196 349.343 197C335.843 197 326.426 184.333 321.093 159C313.426 157.833 309.593 154.667 309.593 149.5C309.593 145.833 312.426 143.417 318.093 142.25V143.25L320.593 142.25V136C320.593 116.833 326.009 107.25 336.843 107.25ZM338.343 125.25H336.093L335.093 134.5V142.25H336.093C345.426 141.917 350.093 140.917 350.093 139.25C345.759 132.75 341.843 128.083 338.343 125.25ZM407.45 59.25C412.117 60.9167 414.45 63.5 414.45 67L416.95 162.25V193C416.95 198.667 414.534 201.5 409.7 201.5H406.45C403.45 199.5 401.95 197.167 401.95 194.5V165.5L399.7 66.5C399.7 62.3333 402.284 59.9167 407.45 59.25ZM460.448 112.25L470.698 110.75C474.865 110.75 477.198 113.333 477.698 118.5C477.698 123 472.282 125.917 461.448 127.25C454.615 132.583 451.198 139.417 451.198 147.75V156C454.532 174.333 460.198 183.5 468.198 183.5H470.698C475.365 183.5 482.365 179.083 491.698 170.25H493.198C496.532 170.25 499.198 172.583 501.198 177.25C498.865 184.417 491.365 190.917 478.698 196.75C476.365 197.75 473.448 198.25 469.948 198.25C452.782 198.25 441.615 184.75 436.448 157.75V152.25C436.448 132.75 444.448 119.417 460.448 112.25ZM553.806 102.75C566.139 102.75 575.472 111.917 581.806 130.25L582.806 135.5C582.806 153.333 574.472 171.583 557.806 190.25C551.139 196.417 544.389 199.5 537.556 199.5C527.556 199.5 520.472 193.75 516.306 182.25C514.806 176.917 514.056 172.25 514.056 168.25V165.25C514.056 138.917 523.639 118.917 542.806 105.25C546.139 103.583 549.806 102.75 553.806 102.75ZM528.806 167.75C528.806 179.083 531.722 184.75 537.556 184.75C549.722 184.75 559.806 169.167 567.806 138V133.25C564.972 122.917 559.722 117.75 552.056 117.75C549.056 117.75 547.556 119.833 547.556 124C547.556 126.833 544.222 129.083 537.556 130.75C531.722 140.583 528.806 152.917 528.806 167.75ZM597.884 109.5C599.05 105.333 601.717 103.25 605.884 103.25C610.05 103.25 612.8 107.417 614.134 115.75H615.134L626.634 113.25C631.967 113.25 637.134 118.25 642.134 128.25H643.134C650.467 116.75 657.967 111 665.634 111C681.967 114 690.134 124.667 690.134 143L690.634 151.75L688.384 202.25V207C688.384 211.167 685.8 213.583 680.634 214.25C675.467 214.25 672.884 208.167 672.884 196L675.884 150.75C675.884 134.083 671.967 125.75 664.134 125.75C659.634 125.75 654.217 136.667 647.884 158.5C644.717 183.5 642.134 196 640.134 196C637.3 196 635.884 196.583 635.884 197.75C630.717 197.083 628.134 194.417 628.134 189.75L631.384 159.5C630.884 138.667 628.8 128.25 625.134 128.25H624.384C620.217 131.417 618.134 137.667 618.134 147V160.25L617.134 198.5C615.967 202.667 613.384 204.75 609.384 204.75C605.884 204.75 603.634 201.833 602.634 196L601.634 166.5L603.134 142.25C602.134 129.75 600.384 118.833 597.884 109.5ZM726.979 107.25C733.646 107.417 744.896 119.083 760.729 142.25L761.229 146.5C761.229 151.167 749.813 154.75 726.979 157.25L726.229 158V159C729.729 174 733.396 181.5 737.229 181.5H740.229C745.563 181.5 753.646 175.75 764.479 164.25H765.979C769.313 164.25 771.896 166.667 773.729 171.5C773.729 175.5 766.729 182.417 752.729 192.25C749.063 194.417 744.646 196 739.479 197C725.979 197 716.563 184.333 711.229 159C703.563 157.833 699.729 154.667 699.729 149.5C699.729 145.833 702.563 143.417 708.229 142.25V143.25L710.729 142.25V136C710.729 116.833 716.146 107.25 726.979 107.25ZM728.479 125.25H726.229L725.229 134.5V142.25H726.229C735.563 141.917 740.229 140.917 740.229 139.25C735.896 132.75 731.979 128.083 728.479 125.25Z" fill="black"/>
</svg>
