<svg width="909" height="113" viewBox="0 0 909 113" fill="none" xmlns="http://www.w3.org/2000/svg">
<path d="M596 1H27L1 27.2463V112H476L502 84.1133H580L596 64.4286V1Z" fill="white" stroke="black"/>
<path d="M596 112L615.5 88.0151H689.5L707.5 63.4724V1H901V88.0151L871.5 112H596Z" fill="black" stroke="black"/>
<path d="M691.061 47.0607C691.646 46.4749 691.646 45.5251 691.061 44.9393L681.515 35.3934C680.929 34.8076 679.979 34.8076 679.393 35.3934C678.808 35.9792 678.808 36.9289 679.393 37.5147L687.879 46L679.393 54.4853C678.808 55.0711 678.808 56.0208 679.393 56.6066C679.979 57.1924 680.929 57.1924 681.515 56.6066L691.061 47.0607ZM614 47.5H690V44.5H614V47.5Z" fill="black"/>
<g style="mix-blend-mode:exclusion">
<path d="M783.119 35.4L779.999 57.68C779.732 59.5733 779.012 61.0133 777.839 62C776.692 62.9867 775.186 63.48 773.319 63.48C772.812 63.48 772.226 63.44 771.559 63.36C770.892 63.28 770.252 63.1733 769.639 63.04C769.052 62.9333 768.572 62.8 768.199 62.64L769.239 58.72H770.919C771.879 58.72 772.612 58.52 773.119 58.12C773.626 57.72 773.932 57.1467 774.039 56.4L776.999 35.4H783.119ZM796.246 42.72C798.673 42.72 800.62 43.08 802.086 43.8C803.553 44.4933 804.54 45.6133 805.046 47.16C805.58 48.7067 805.66 50.7867 805.286 53.4C804.94 55.88 804.34 57.8667 803.486 59.36C802.66 60.8267 801.486 61.88 799.966 62.52C798.446 63.16 796.473 63.48 794.046 63.48C791.646 63.48 789.7 63.1333 788.206 62.44C786.74 61.7467 785.726 60.6267 785.166 59.08C784.633 57.5333 784.54 55.48 784.886 52.92C785.26 50.4133 785.86 48.4267 786.686 46.96C787.513 45.4667 788.7 44.3867 790.246 43.72C791.82 43.0533 793.82 42.72 796.246 42.72ZM796.166 47.04C795.1 47.04 794.233 47.2133 793.566 47.56C792.926 47.9067 792.406 48.5333 792.006 49.44C791.633 50.3467 791.326 51.6667 791.086 53.4C790.873 54.92 790.806 56.1067 790.886 56.96C790.993 57.8133 791.313 58.4 791.846 58.72C792.38 59.04 793.166 59.2 794.206 59.2C795.273 59.2 796.126 59.0267 796.766 58.68C797.406 58.3067 797.913 57.6667 798.286 56.76C798.66 55.8533 798.966 54.5733 799.206 52.92C799.42 51.3467 799.473 50.1467 799.366 49.32C799.286 48.4667 798.98 47.88 798.446 47.56C797.94 47.2133 797.18 47.04 796.166 47.04ZM816.72 43.24L813.96 63H808.08L810.84 43.24H816.72ZM816.12 34.52C816.76 34.52 817.213 34.68 817.48 35C817.773 35.32 817.88 35.8 817.8 36.44L817.52 38.56C817.36 39.68 816.707 40.24 815.56 40.24H813.16C811.88 40.24 811.307 39.6 811.44 38.32L811.76 36.2C811.867 35.08 812.507 34.52 813.68 34.52H816.12ZM835.376 42.72C836.469 42.72 837.416 42.9333 838.216 43.36C839.016 43.76 839.602 44.3733 839.976 45.2C840.349 46.0267 840.456 47.0667 840.296 48.32L838.216 63H832.256L834.096 50.12C834.229 49.2133 834.176 48.5867 833.936 48.24C833.722 47.8667 833.242 47.6933 832.496 47.72C831.616 47.7467 830.682 48.0267 829.696 48.56C828.736 49.0933 827.562 49.92 826.176 51.04L825.496 48.04C827.069 46.36 828.696 45.0533 830.376 44.12C832.082 43.1867 833.749 42.72 835.376 42.72ZM826.336 43.24V48.44L826.816 49L824.856 63H818.936L821.696 43.24H826.336Z" fill="#FFF8F8"/>
</g>
</svg>
