<svg width="303" height="132" viewBox="0 0 303 132" fill="none" xmlns="http://www.w3.org/2000/svg">
<path d="M13 57L35 19H302.5V111H215L199 131H13V57Z" fill="black" stroke="black"/>
<path d="M0 38L22 0H289.5V92H202L186 112H0V38Z" fill="#02C166"/>
<path d="M11 91H176V108H11V91Z" fill="#0068FF"/>
<path d="M68.3594 41.4C71.0474 41.4 73.2874 41.72 75.0794 42.36C76.8714 42.968 78.1514 44.008 78.9194 45.48C79.7194 46.92 79.9434 48.936 79.5914 51.528C79.3994 53 79.0314 54.296 78.4874 55.416C77.9754 56.536 77.2074 57.448 76.1834 58.152C75.1594 58.824 73.8154 59.256 72.1514 59.448L72.1034 59.736C72.6794 59.832 73.2394 60.072 73.7834 60.456C74.3274 60.84 74.8074 61.384 75.2234 62.088C75.6394 62.76 75.9114 63.672 76.0394 64.824L77.7194 75H70.1834L68.7434 64.776C68.6154 63.688 68.3274 62.968 67.8794 62.616C67.4634 62.232 66.8234 62.04 65.9594 62.04C63.6874 62.008 61.8154 61.992 60.3434 61.992C58.8714 61.992 57.6394 61.976 56.6474 61.944C55.6554 61.912 54.7434 61.88 53.9114 61.848L54.5834 56.52H66.4874C67.7674 56.52 68.7914 56.376 69.5594 56.088C70.3274 55.8 70.9194 55.288 71.3354 54.552C71.7514 53.784 72.0554 52.744 72.2474 51.432C72.4394 50.28 72.4394 49.384 72.2474 48.744C72.0554 48.072 71.6394 47.608 70.9994 47.352C70.3594 47.064 69.4474 46.92 68.2634 46.92C65.1594 46.92 62.5514 46.952 60.4394 47.016C58.3594 47.048 56.9514 47.08 56.2154 47.112L56.0234 41.88C57.3354 41.72 58.5834 41.608 59.7674 41.544C60.9514 41.48 62.2154 41.448 63.5594 41.448C64.9354 41.416 66.5354 41.4 68.3594 41.4ZM63.1754 41.88L58.5194 75H51.3674L56.0234 41.88H63.1754ZM95.9928 50.664C98.9048 50.664 101.145 50.984 102.713 51.624C104.313 52.232 105.385 53.16 105.929 54.408C106.473 55.624 106.601 57.128 106.313 58.92C106.089 60.392 105.593 61.56 104.825 62.424C104.089 63.256 103.065 63.88 101.753 64.296C100.441 64.712 98.7768 65 96.7608 65.16L84.6648 66.168L85.1928 62.232L95.3688 61.224C96.2328 61.128 96.9368 61 97.4808 60.84C98.0568 60.648 98.5048 60.36 98.8248 59.976C99.1448 59.56 99.3528 58.984 99.4488 58.248C99.5768 57.48 99.5288 56.904 99.3048 56.52C99.0808 56.136 98.6808 55.896 98.1048 55.8C97.5288 55.672 96.7608 55.624 95.8008 55.656C94.8088 55.656 93.9768 55.752 93.3048 55.944C92.6328 56.136 92.0728 56.488 91.6248 57C91.1768 57.48 90.8088 58.184 90.5208 59.112C90.2328 60.008 89.9608 61.176 89.7048 62.616C89.3848 64.696 89.3368 66.264 89.5608 67.32C89.7848 68.376 90.2808 69.08 91.0488 69.432C91.8168 69.784 92.8888 69.96 94.2648 69.96C95.0328 69.96 95.9608 69.944 97.0488 69.912C98.1368 69.848 99.2408 69.784 100.361 69.72C101.513 69.624 102.553 69.528 103.481 69.432L103.961 73.848C103.001 74.264 101.913 74.6 100.697 74.856C99.4808 75.112 98.2488 75.288 97.0008 75.384C95.7528 75.512 94.5848 75.576 93.4968 75.576C90.3288 75.576 87.8648 75.096 86.1048 74.136C84.3768 73.176 83.2248 71.752 82.6488 69.864C82.0728 67.944 81.9448 65.592 82.2648 62.808C82.5528 60.344 83.0328 58.328 83.7048 56.76C84.4088 55.192 85.3048 53.976 86.3928 53.112C87.5128 52.216 88.8728 51.592 90.4728 51.24C92.0728 50.856 93.9128 50.664 95.9928 50.664ZM127.791 51.576L134.799 52.008L131.871 72.6C131.551 74.968 130.991 76.936 130.191 78.504C129.391 80.104 128.367 81.368 127.119 82.296C125.903 83.256 124.479 83.928 122.847 84.312C121.247 84.696 119.487 84.904 117.567 84.936C117.023 84.936 116.191 84.92 115.071 84.888C113.983 84.856 112.815 84.744 111.567 84.552C110.319 84.36 109.199 84.088 108.207 83.736L108.639 79.656C109.215 79.656 109.791 79.656 110.367 79.656C110.975 79.688 111.679 79.704 112.479 79.704C113.279 79.704 114.271 79.688 115.455 79.656C117.727 79.624 119.679 79.272 121.311 78.6C122.975 77.928 124.111 76.728 124.719 75C125.103 74.008 125.391 73.048 125.583 72.12C125.807 71.192 126.159 70.312 126.639 69.48L125.295 68.952L127.791 51.576ZM121.791 50.664C123.455 50.664 125.103 50.728 126.735 50.856C128.399 50.984 129.919 51.16 131.295 51.384C132.703 51.576 133.855 51.784 134.751 52.008L129.951 55.848C128.639 55.784 127.439 55.752 126.351 55.752C125.295 55.72 124.287 55.704 123.327 55.704C122.143 55.704 121.167 55.8 120.399 55.992C119.663 56.184 119.071 56.536 118.623 57.048C118.175 57.528 117.807 58.232 117.519 59.16C117.263 60.056 117.023 61.24 116.799 62.712C116.479 64.664 116.319 66.184 116.319 67.272C116.351 68.328 116.559 69.048 116.943 69.432C117.359 69.816 117.967 69.976 118.767 69.912C119.663 69.848 120.575 69.56 121.503 69.048C122.431 68.504 123.359 67.768 124.287 66.84C125.215 65.912 126.127 64.84 127.023 63.624L128.271 65.88C127.631 67.736 126.719 69.368 125.535 70.776C124.351 72.152 122.959 73.24 121.359 74.04C119.759 74.84 117.999 75.272 116.079 75.336C114.095 75.368 112.543 74.952 111.423 74.088C110.335 73.192 109.647 71.8 109.359 69.912C109.071 67.992 109.151 65.576 109.599 62.664C110.015 59.912 110.575 57.736 111.279 56.136C111.983 54.536 112.831 53.352 113.823 52.584C114.847 51.784 116.015 51.272 117.327 51.048C118.671 50.792 120.159 50.664 121.791 50.664ZM147.839 51.288L144.527 75H137.471L140.783 51.288H147.839ZM147.119 40.824C147.887 40.824 148.431 41.016 148.751 41.4C149.103 41.784 149.231 42.36 149.135 43.128L148.799 45.672C148.607 47.016 147.823 47.688 146.447 47.688H143.567C142.031 47.688 141.343 46.92 141.503 45.384L141.887 42.84C142.015 41.496 142.783 40.824 144.191 40.824H147.119ZM162.594 50.664C163.778 50.664 165.042 50.712 166.386 50.808C167.73 50.904 169.026 51.016 170.274 51.144C171.554 51.272 172.658 51.416 173.586 51.576L172.914 55.992C171.378 55.96 169.842 55.944 168.306 55.944C166.802 55.912 165.266 55.88 163.698 55.848C162.482 55.848 161.506 55.88 160.77 55.944C160.066 55.976 159.554 56.104 159.234 56.328C158.914 56.52 158.722 56.84 158.658 57.288C158.594 57.864 158.754 58.312 159.138 58.632C159.554 58.952 160.258 59.288 161.25 59.64L167.154 61.752C168.402 62.2 169.426 62.728 170.226 63.336C171.026 63.944 171.586 64.696 171.906 65.592C172.258 66.488 172.354 67.576 172.194 68.856C171.97 70.776 171.362 72.216 170.37 73.176C169.41 74.104 168.114 74.728 166.482 75.048C164.882 75.368 162.93 75.528 160.626 75.528C159.378 75.528 158.21 75.496 157.122 75.432C156.066 75.4 154.962 75.304 153.81 75.144C152.69 75.016 151.426 74.856 150.018 74.664L150.642 70.248C151.25 70.28 151.986 70.312 152.85 70.344C153.746 70.344 154.674 70.36 155.634 70.392C156.626 70.392 157.554 70.392 158.418 70.392C160.242 70.36 161.634 70.296 162.594 70.2C163.554 70.104 164.226 69.944 164.61 69.72C165.026 69.464 165.282 69.096 165.378 68.616C165.442 68.2 165.378 67.88 165.186 67.656C165.026 67.432 164.722 67.224 164.274 67.032C163.858 66.84 163.282 66.616 162.546 66.36L156.786 64.2C155.474 63.72 154.418 63.144 153.618 62.472C152.85 61.8 152.322 60.984 152.034 60.024C151.778 59.064 151.73 57.976 151.89 56.76C152.082 55.288 152.562 54.12 153.33 53.256C154.098 52.36 155.234 51.704 156.738 51.288C158.242 50.872 160.194 50.664 162.594 50.664ZM189.298 44.712L186.034 67.56C185.906 68.424 185.986 69.016 186.274 69.336C186.562 69.656 187.17 69.816 188.098 69.816H191.314L191.65 74.664C191.042 74.856 190.306 75.016 189.442 75.144C188.61 75.304 187.794 75.416 186.994 75.48C186.194 75.544 185.538 75.576 185.026 75.576C182.818 75.576 181.138 74.984 179.986 73.8C178.866 72.584 178.466 70.952 178.786 68.904L182.29 44.712H189.298ZM194.962 51.288L194.29 55.944H176.434L177.01 51.528L181.618 51.288H194.962ZM209.852 50.664C212.764 50.664 215.004 50.984 216.572 51.624C218.172 52.232 219.244 53.16 219.788 54.408C220.332 55.624 220.46 57.128 220.172 58.92C219.948 60.392 219.452 61.56 218.684 62.424C217.948 63.256 216.924 63.88 215.612 64.296C214.3 64.712 212.636 65 210.62 65.16L198.524 66.168L199.052 62.232L209.228 61.224C210.092 61.128 210.796 61 211.34 60.84C211.916 60.648 212.364 60.36 212.684 59.976C213.004 59.56 213.212 58.984 213.308 58.248C213.436 57.48 213.388 56.904 213.164 56.52C212.94 56.136 212.54 55.896 211.964 55.8C211.388 55.672 210.62 55.624 209.66 55.656C208.668 55.656 207.836 55.752 207.164 55.944C206.492 56.136 205.932 56.488 205.484 57C205.036 57.48 204.668 58.184 204.38 59.112C204.092 60.008 203.82 61.176 203.564 62.616C203.244 64.696 203.196 66.264 203.42 67.32C203.644 68.376 204.14 69.08 204.908 69.432C205.676 69.784 206.748 69.96 208.124 69.96C208.892 69.96 209.82 69.944 210.908 69.912C211.996 69.848 213.1 69.784 214.22 69.72C215.372 69.624 216.412 69.528 217.34 69.432L217.82 73.848C216.86 74.264 215.772 74.6 214.556 74.856C213.34 75.112 212.108 75.288 210.86 75.384C209.612 75.512 208.444 75.576 207.356 75.576C204.188 75.576 201.724 75.096 199.964 74.136C198.236 73.176 197.084 71.752 196.508 69.864C195.932 67.944 195.804 65.592 196.124 62.808C196.412 60.344 196.892 58.328 197.564 56.76C198.268 55.192 199.164 53.976 200.252 53.112C201.372 52.216 202.732 51.592 204.332 51.24C205.932 50.856 207.772 50.664 209.852 50.664ZM231.33 51.288L231.378 56.952L232.002 57.624L229.602 75H222.498L225.81 51.288H231.33ZM242.946 50.664L241.41 57.24H239.682C238.562 57.24 237.346 57.496 236.034 58.008C234.754 58.488 233.138 59.224 231.186 60.216L230.898 56.04C232.786 54.28 234.626 52.952 236.418 52.056C238.21 51.128 239.906 50.664 241.506 50.664H242.946Z" fill="white"/>
</svg>
