<svg width="120" height="1258" viewBox="0 0 120 1258" fill="none" xmlns="http://www.w3.org/2000/svg">
<path d="M110.5 253.5H72.5V449.5L54.5 489V649L86.5 705V842.5L1.43604 911V1130L54.5 1168.5H120.936" stroke="black"/>
<path d="M134.5 58L109 134V283.75V433.5L89 475.5V623L109 665V743L89 778.5V814.5H134.5V58Z" fill="#0068FF"/>
<line x1="40" y1="14.5" x2="70" y2="14.5" stroke="black"/>
<line x1="55.5" y1="2.18557e-08" x2="55.5" y2="30" stroke="black"/>
<rect x="23" y="1241" width="17" height="17" fill="black"/>
<rect x="2" y="1220" width="17" height="17" fill="black"/>
<rect x="2" y="1241" width="17" height="17" fill="black"/>
<rect x="23" y="1220" width="17" height="17" fill="black"/>
</svg>
