<svg width="439" height="163" viewBox="0 0 439 163" fill="none" xmlns="http://www.w3.org/2000/svg">
<rect x="3.98187" y="39" width="435.018" height="124" rx="20" fill="#0068FF"/>
<rect x="0.5" y="32.5" width="434.018" height="123" rx="19.5" fill="url(#paint0_linear_284_3)" stroke="white"/>
<mask id="path-3-outside-1_284_3" maskUnits="userSpaceOnUse" x="94.678" y="62" width="202" height="62" fill="black">
<rect fill="white" x="94.678" y="62" width="202" height="62"/>
<path d="M113.046 122.872C107.883 122.872 103.979 121.763 101.334 119.544C98.6882 117.283 97.1309 113.827 96.6616 109.176C96.6189 108.28 96.8322 107.597 97.3016 107.128C97.7709 106.616 98.4536 106.36 99.3496 106.36C100.203 106.36 100.843 106.595 101.27 107.064C101.739 107.491 101.995 108.152 102.038 109.048C102.379 112.163 103.382 114.36 105.046 115.64C106.752 116.877 109.419 117.496 113.046 117.496H134.038C138.262 117.496 141.163 116.685 142.742 115.064C144.363 113.4 145.174 110.499 145.174 106.36C145.174 102.179 144.363 99.2773 142.742 97.656C141.163 96.0347 138.262 95.224 134.038 95.224H113.302C107.926 95.224 103.958 93.9653 101.398 91.448C98.8376 88.9307 97.5576 84.984 97.5576 79.608C97.5576 74.1467 98.8376 70.1573 101.398 67.64C103.958 65.1227 107.926 63.864 113.302 63.864H133.398C142.955 63.864 148.118 68.1307 148.886 76.664C149.014 77.56 148.843 78.264 148.374 78.776C147.904 79.2453 147.222 79.48 146.326 79.48C145.43 79.48 144.768 79.2667 144.342 78.84C143.915 78.3707 143.638 77.688 143.51 76.792C143.254 73.976 142.358 72.0133 140.822 70.904C139.286 69.7947 136.811 69.24 133.398 69.24H113.302C109.419 69.24 106.71 69.9867 105.174 71.48C103.68 72.9733 102.934 75.6827 102.934 79.608C102.934 83.448 103.68 86.1147 105.174 87.608C106.71 89.1013 109.419 89.848 113.302 89.848H134.038C139.755 89.848 143.936 91.1707 146.582 93.816C149.227 96.4613 150.55 100.643 150.55 106.36C150.55 112.035 149.227 116.216 146.582 118.904C143.936 121.549 139.755 122.872 134.038 122.872H113.046ZM190.872 123C183.064 123 177.368 121.229 173.784 117.688C170.242 114.104 168.472 108.451 168.472 100.728V86.392C168.472 78.4987 170.242 72.7813 173.784 69.24C177.368 65.656 183.064 63.9067 190.872 63.992H201.368C209.176 63.992 214.85 65.784 218.392 69.368C221.976 72.9093 223.768 78.584 223.768 86.392V100.6C223.768 108.408 221.976 114.104 218.392 117.688C214.85 121.229 209.176 123 201.368 123H190.872ZM173.848 100.728C173.848 106.915 175.106 111.288 177.624 113.848C180.184 116.365 184.6 117.624 190.872 117.624H201.368C207.64 117.624 212.034 116.365 214.552 113.848C217.112 111.288 218.392 106.872 218.392 100.6V86.392C218.392 80.12 217.112 75.7253 214.552 73.208C212.034 70.648 207.64 69.368 201.368 69.368H190.872C186.69 69.3253 183.341 69.8587 180.824 70.968C178.349 72.0347 176.557 73.8267 175.448 76.344C174.381 78.8187 173.848 82.168 173.848 86.392V100.728ZM258.046 122.872C252.883 122.872 248.979 121.763 246.334 119.544C243.688 117.283 242.131 113.827 241.662 109.176C241.619 108.28 241.832 107.597 242.302 107.128C242.771 106.616 243.454 106.36 244.35 106.36C245.203 106.36 245.843 106.595 246.27 107.064C246.739 107.491 246.995 108.152 247.038 109.048C247.379 112.163 248.382 114.36 250.046 115.64C251.752 116.877 254.419 117.496 258.046 117.496H279.038C283.262 117.496 286.163 116.685 287.742 115.064C289.363 113.4 290.174 110.499 290.174 106.36C290.174 102.179 289.363 99.2773 287.742 97.656C286.163 96.0347 283.262 95.224 279.038 95.224H258.302C252.926 95.224 248.958 93.9653 246.398 91.448C243.838 88.9307 242.558 84.984 242.558 79.608C242.558 74.1467 243.838 70.1573 246.398 67.64C248.958 65.1227 252.926 63.864 258.302 63.864H278.398C287.955 63.864 293.118 68.1307 293.886 76.664C294.014 77.56 293.843 78.264 293.374 78.776C292.904 79.2453 292.222 79.48 291.326 79.48C290.43 79.48 289.768 79.2667 289.342 78.84C288.915 78.3707 288.638 77.688 288.51 76.792C288.254 73.976 287.358 72.0133 285.822 70.904C284.286 69.7947 281.811 69.24 278.398 69.24H258.302C254.419 69.24 251.71 69.9867 250.174 71.48C248.68 72.9733 247.934 75.6827 247.934 79.608C247.934 83.448 248.68 86.1147 250.174 87.608C251.71 89.1013 254.419 89.848 258.302 89.848H279.038C284.755 89.848 288.936 91.1707 291.582 93.816C294.227 96.4613 295.55 100.643 295.55 106.36C295.55 112.035 294.227 116.216 291.582 118.904C288.936 121.549 284.755 122.872 279.038 122.872H258.046Z"/>
</mask>
<path d="M113.046 122.872C107.883 122.872 103.979 121.763 101.334 119.544C98.6882 117.283 97.1309 113.827 96.6616 109.176C96.6189 108.28 96.8322 107.597 97.3016 107.128C97.7709 106.616 98.4536 106.36 99.3496 106.36C100.203 106.36 100.843 106.595 101.27 107.064C101.739 107.491 101.995 108.152 102.038 109.048C102.379 112.163 103.382 114.36 105.046 115.64C106.752 116.877 109.419 117.496 113.046 117.496H134.038C138.262 117.496 141.163 116.685 142.742 115.064C144.363 113.4 145.174 110.499 145.174 106.36C145.174 102.179 144.363 99.2773 142.742 97.656C141.163 96.0347 138.262 95.224 134.038 95.224H113.302C107.926 95.224 103.958 93.9653 101.398 91.448C98.8376 88.9307 97.5576 84.984 97.5576 79.608C97.5576 74.1467 98.8376 70.1573 101.398 67.64C103.958 65.1227 107.926 63.864 113.302 63.864H133.398C142.955 63.864 148.118 68.1307 148.886 76.664C149.014 77.56 148.843 78.264 148.374 78.776C147.904 79.2453 147.222 79.48 146.326 79.48C145.43 79.48 144.768 79.2667 144.342 78.84C143.915 78.3707 143.638 77.688 143.51 76.792C143.254 73.976 142.358 72.0133 140.822 70.904C139.286 69.7947 136.811 69.24 133.398 69.24H113.302C109.419 69.24 106.71 69.9867 105.174 71.48C103.68 72.9733 102.934 75.6827 102.934 79.608C102.934 83.448 103.68 86.1147 105.174 87.608C106.71 89.1013 109.419 89.848 113.302 89.848H134.038C139.755 89.848 143.936 91.1707 146.582 93.816C149.227 96.4613 150.55 100.643 150.55 106.36C150.55 112.035 149.227 116.216 146.582 118.904C143.936 121.549 139.755 122.872 134.038 122.872H113.046ZM190.872 123C183.064 123 177.368 121.229 173.784 117.688C170.242 114.104 168.472 108.451 168.472 100.728V86.392C168.472 78.4987 170.242 72.7813 173.784 69.24C177.368 65.656 183.064 63.9067 190.872 63.992H201.368C209.176 63.992 214.85 65.784 218.392 69.368C221.976 72.9093 223.768 78.584 223.768 86.392V100.6C223.768 108.408 221.976 114.104 218.392 117.688C214.85 121.229 209.176 123 201.368 123H190.872ZM173.848 100.728C173.848 106.915 175.106 111.288 177.624 113.848C180.184 116.365 184.6 117.624 190.872 117.624H201.368C207.64 117.624 212.034 116.365 214.552 113.848C217.112 111.288 218.392 106.872 218.392 100.6V86.392C218.392 80.12 217.112 75.7253 214.552 73.208C212.034 70.648 207.64 69.368 201.368 69.368H190.872C186.69 69.3253 183.341 69.8587 180.824 70.968C178.349 72.0347 176.557 73.8267 175.448 76.344C174.381 78.8187 173.848 82.168 173.848 86.392V100.728ZM258.046 122.872C252.883 122.872 248.979 121.763 246.334 119.544C243.688 117.283 242.131 113.827 241.662 109.176C241.619 108.28 241.832 107.597 242.302 107.128C242.771 106.616 243.454 106.36 244.35 106.36C245.203 106.36 245.843 106.595 246.27 107.064C246.739 107.491 246.995 108.152 247.038 109.048C247.379 112.163 248.382 114.36 250.046 115.64C251.752 116.877 254.419 117.496 258.046 117.496H279.038C283.262 117.496 286.163 116.685 287.742 115.064C289.363 113.4 290.174 110.499 290.174 106.36C290.174 102.179 289.363 99.2773 287.742 97.656C286.163 96.0347 283.262 95.224 279.038 95.224H258.302C252.926 95.224 248.958 93.9653 246.398 91.448C243.838 88.9307 242.558 84.984 242.558 79.608C242.558 74.1467 243.838 70.1573 246.398 67.64C248.958 65.1227 252.926 63.864 258.302 63.864H278.398C287.955 63.864 293.118 68.1307 293.886 76.664C294.014 77.56 293.843 78.264 293.374 78.776C292.904 79.2453 292.222 79.48 291.326 79.48C290.43 79.48 289.768 79.2667 289.342 78.84C288.915 78.3707 288.638 77.688 288.51 76.792C288.254 73.976 287.358 72.0133 285.822 70.904C284.286 69.7947 281.811 69.24 278.398 69.24H258.302C254.419 69.24 251.71 69.9867 250.174 71.48C248.68 72.9733 247.934 75.6827 247.934 79.608C247.934 83.448 248.68 86.1147 250.174 87.608C251.71 89.1013 254.419 89.848 258.302 89.848H279.038C284.755 89.848 288.936 91.1707 291.582 93.816C294.227 96.4613 295.55 100.643 295.55 106.36C295.55 112.035 294.227 116.216 291.582 118.904C288.936 121.549 284.755 122.872 279.038 122.872H258.046Z" fill="black"/>
<path d="M101.334 119.544L100.684 120.304L100.691 120.31L101.334 119.544ZM96.6616 109.176L95.6627 109.224L95.664 109.25L95.6666 109.276L96.6616 109.176ZM97.3016 107.128L98.0087 107.835L98.0241 107.82L98.0387 107.804L97.3016 107.128ZM101.27 107.064L100.53 107.737L100.562 107.772L100.597 107.804L101.27 107.064ZM102.038 109.048L101.039 109.096L101.04 109.126L101.044 109.157L102.038 109.048ZM105.046 115.64L104.436 116.433L104.447 116.441L104.459 116.45L105.046 115.64ZM142.742 115.064L142.025 114.366L142.025 114.366L142.742 115.064ZM142.742 97.656L142.025 98.3537L142.034 98.3631L142.742 97.656ZM101.398 67.64L100.696 66.927L101.398 67.64ZM148.886 76.664L147.89 76.7536L147.892 76.7796L147.896 76.8054L148.886 76.664ZM148.374 78.776L149.081 79.4831L149.096 79.4677L149.111 79.4517L148.374 78.776ZM144.342 78.84L143.602 79.5127L143.618 79.5303L143.634 79.5471L144.342 78.84ZM143.51 76.792L142.514 76.8825L142.516 76.9081L142.52 76.9334L143.51 76.792ZM140.822 70.904L140.236 71.7147L140.822 70.904ZM105.174 71.48L104.476 70.7629L104.466 70.7729L105.174 71.48ZM105.174 87.608L104.466 88.3152L104.477 88.325L105.174 87.608ZM146.582 93.816L145.874 94.5231L146.582 93.816ZM146.582 118.904L147.289 119.611L147.294 119.605L146.582 118.904ZM113.046 121.872C108.006 121.872 104.371 120.786 101.976 118.778L100.691 120.31C103.587 122.739 107.76 123.872 113.046 123.872V121.872ZM101.983 118.784C99.5931 116.741 98.1091 113.56 97.6565 109.076L95.6666 109.276C96.1527 114.093 97.7834 117.825 100.684 120.304L101.983 118.784ZM97.6605 109.128C97.6263 108.411 97.8015 108.042 98.0087 107.835L96.5945 106.421C95.863 107.152 95.6116 108.149 95.6627 109.224L97.6605 109.128ZM98.0387 107.804C98.2674 107.554 98.6477 107.36 99.3496 107.36V105.36C98.2594 105.36 97.2745 105.678 96.5644 106.452L98.0387 107.804ZM99.3496 107.36C100.023 107.36 100.352 107.541 100.53 107.737L102.01 106.391C101.334 105.649 100.383 105.36 99.3496 105.36V107.36ZM100.597 107.804C100.801 107.989 101.003 108.354 101.039 109.096L103.036 109C102.986 107.95 102.677 106.992 101.942 106.324L100.597 107.804ZM101.044 109.157C101.4 112.409 102.469 114.92 104.436 116.433L105.655 114.847C104.294 113.8 103.358 111.916 103.032 108.939L101.044 109.157ZM104.459 116.45C106.42 117.872 109.344 118.496 113.046 118.496V116.496C109.494 116.496 107.084 115.883 105.633 114.83L104.459 116.45ZM113.046 118.496H134.038V116.496H113.046V118.496ZM134.038 118.496C138.321 118.496 141.583 117.688 143.458 115.762L142.025 114.366C140.743 115.683 138.202 116.496 134.038 116.496V118.496ZM143.458 115.762C145.359 113.811 146.174 110.573 146.174 106.36H144.174C144.174 110.424 143.367 112.989 142.025 114.366L143.458 115.762ZM146.174 106.36C146.174 102.112 145.362 98.8624 143.449 96.9489L142.034 98.3631C143.364 99.6923 144.174 102.246 144.174 106.36H146.174ZM143.458 96.9584C141.583 95.0322 138.321 94.224 134.038 94.224V96.224C138.202 96.224 140.743 97.0371 142.025 98.3536L143.458 96.9584ZM134.038 94.224H113.302V96.224H134.038V94.224ZM113.302 94.224C108.059 94.224 104.397 92.9945 102.099 90.735L100.696 92.161C103.519 94.9362 107.792 96.224 113.302 96.224V94.224ZM102.099 90.735C99.8071 88.4816 98.5576 84.8481 98.5576 79.608H96.5576C96.5576 85.1199 97.868 89.3798 100.696 92.161L102.099 90.735ZM98.5576 79.608C98.5576 74.2771 99.8097 70.6039 102.099 68.353L100.696 66.927C97.8655 69.7108 96.5576 74.0162 96.5576 79.608H98.5576ZM102.099 68.353C104.397 66.0935 108.059 64.864 113.302 64.864V62.864C107.792 62.864 103.519 64.1518 100.696 66.927L102.099 68.353ZM113.302 64.864H133.398V62.864H113.302V64.864ZM133.398 64.864C138.041 64.864 141.461 65.9016 143.801 67.8348C146.123 69.754 147.523 72.6749 147.89 76.7536L149.882 76.5744C149.481 72.1198 147.915 68.6407 145.075 66.2932C142.251 63.9597 138.311 62.864 133.398 62.864V64.864ZM147.896 76.8054C147.995 77.5016 147.846 77.8722 147.636 78.1003L149.111 79.4517C149.84 78.6558 150.032 77.6184 149.876 76.5226L147.896 76.8054ZM147.666 78.0689C147.443 78.2925 147.052 78.48 146.326 78.48V80.48C147.391 80.48 148.366 80.1981 149.081 79.4831L147.666 78.0689ZM146.326 78.48C145.567 78.48 145.214 78.2978 145.049 78.1329L143.634 79.5471C144.323 80.2355 145.292 80.48 146.326 80.48V78.48ZM145.082 78.1673C144.836 77.8969 144.611 77.4295 144.5 76.6506L142.52 76.9334C142.664 77.9465 142.994 78.8445 143.602 79.5127L145.082 78.1673ZM144.505 76.7015C144.236 73.741 143.274 71.4413 141.407 70.0933L140.236 71.7147C141.442 72.5853 142.271 74.211 142.514 76.8825L144.505 76.7015ZM141.407 70.0933C139.611 68.7961 136.874 68.24 133.398 68.24V70.24C136.748 70.24 138.96 70.7932 140.236 71.7147L141.407 70.0933ZM133.398 68.24H113.302V70.24H133.398V68.24ZM113.302 68.24C109.35 68.24 106.302 68.9882 104.477 70.763L105.871 72.197C107.117 70.9852 109.488 70.24 113.302 70.24V68.24ZM104.466 70.7729C102.678 72.5609 101.934 75.6223 101.934 79.608H103.934C103.934 75.743 104.682 73.3857 105.881 72.1871L104.466 70.7729ZM101.934 79.608C101.934 83.516 102.681 86.53 104.466 88.3151L105.881 86.9009C104.679 85.6993 103.934 83.38 103.934 79.608H101.934ZM104.477 88.325C106.302 90.0998 109.35 90.848 113.302 90.848V88.848C109.488 88.848 107.117 88.1028 105.871 86.891L104.477 88.325ZM113.302 90.848H134.038V88.848H113.302V90.848ZM134.038 90.848C139.627 90.848 143.495 92.1441 145.874 94.5231L147.289 93.1089C144.377 90.1972 139.883 88.848 134.038 88.848V90.848ZM145.874 94.5231C148.253 96.9021 149.55 100.77 149.55 106.36H151.55C151.55 100.515 150.2 96.0206 147.289 93.1089L145.874 94.5231ZM149.55 106.36C149.55 111.903 148.255 115.778 145.869 118.203L147.294 119.605C150.199 116.654 151.55 112.167 151.55 106.36H149.55ZM145.874 118.197C143.495 120.576 139.627 121.872 134.038 121.872V123.872C139.883 123.872 144.377 122.523 147.289 119.611L145.874 118.197ZM134.038 121.872H113.046V123.872H134.038V121.872ZM173.784 117.688L173.072 118.391L173.081 118.399L173.784 117.688ZM173.784 69.24L173.076 68.5329L173.784 69.24ZM190.872 63.992L190.861 64.992H190.872V63.992ZM218.392 69.368L217.68 70.0709L217.689 70.0793L218.392 69.368ZM218.392 117.688L219.099 118.395L218.392 117.688ZM177.624 113.848L176.911 114.549L176.916 114.555L176.922 114.561L177.624 113.848ZM214.552 113.848L215.259 114.555L214.552 113.848ZM214.552 73.208L213.839 73.9091L213.844 73.9151L213.85 73.921L214.552 73.208ZM190.872 69.368L190.861 70.368H190.872V69.368ZM180.824 70.968L181.219 71.8864L181.227 71.8831L180.824 70.968ZM175.448 76.344L174.532 75.9407L174.529 75.9482L175.448 76.344ZM190.872 122C183.186 122 177.803 120.253 174.486 116.977L173.081 118.399C176.933 122.205 182.941 124 190.872 124V122ZM174.495 116.985C171.217 113.667 169.472 108.325 169.472 100.728H167.472C167.472 108.577 169.268 114.541 173.072 118.391L174.495 116.985ZM169.472 100.728V86.392H167.472V100.728H169.472ZM169.472 86.392C169.472 78.6159 171.221 73.2173 174.491 69.9471L173.076 68.5329C169.264 72.3454 167.472 78.3814 167.472 86.392H169.472ZM174.491 69.9471C177.803 66.6348 183.179 64.908 190.861 64.9919L190.883 62.9921C182.948 62.9053 176.932 64.6772 173.076 68.5329L174.491 69.9471ZM190.872 64.992H201.368V62.992H190.872V64.992ZM201.368 64.992C209.052 64.992 214.408 66.7593 217.68 70.0709L219.103 68.6651C215.292 64.8087 209.299 62.992 201.368 62.992V64.992ZM217.689 70.0793C221 73.3515 222.768 78.7077 222.768 86.392H224.768C224.768 78.4603 222.951 72.4672 219.094 68.6567L217.689 70.0793ZM222.768 86.392V100.6H224.768V86.392H222.768ZM222.768 100.6C222.768 108.283 221.001 113.664 217.684 116.981L219.099 118.395C222.95 114.543 224.768 108.533 224.768 100.6H222.768ZM217.684 116.981C214.413 120.253 209.055 122 201.368 122V124C209.297 124 215.288 122.206 219.099 118.395L217.684 116.981ZM201.368 122H190.872V124H201.368V122ZM172.848 100.728C172.848 107.001 174.115 111.706 176.911 114.549L178.337 113.147C176.098 110.87 174.848 106.829 174.848 100.728H172.848ZM176.922 114.561C179.768 117.359 184.518 118.624 190.872 118.624V116.624C184.681 116.624 180.599 115.372 178.325 113.135L176.922 114.561ZM190.872 118.624H201.368V116.624H190.872V118.624ZM201.368 118.624C207.718 118.624 212.454 117.36 215.259 114.555L213.844 113.141C211.615 115.371 207.561 116.624 201.368 116.624V118.624ZM215.259 114.555C218.104 111.71 219.392 106.957 219.392 100.6H217.392C217.392 106.787 216.119 110.866 213.844 113.141L215.259 114.555ZM219.392 100.6V86.392H217.392V100.6H219.392ZM219.392 86.392C219.392 80.0378 218.105 75.2995 215.253 72.495L213.85 73.921C216.118 76.1511 217.392 80.2022 217.392 86.392H219.392ZM215.265 72.5069C212.46 69.6548 207.722 68.368 201.368 68.368V70.368C207.557 70.368 211.608 71.6412 213.839 73.9091L215.265 72.5069ZM201.368 68.368H190.872V70.368H201.368V68.368ZM190.882 68.368C186.625 68.3246 183.118 68.8642 180.42 70.0529L181.227 71.8831C183.564 70.8531 186.755 70.326 190.861 70.3679L190.882 68.368ZM180.428 70.0497C177.716 71.2186 175.741 73.1976 174.533 75.9407L176.363 76.7473C177.373 74.4557 178.982 72.8507 181.219 71.8863L180.428 70.0497ZM174.529 75.9482C173.387 78.5985 172.848 82.1007 172.848 86.392H174.848C174.848 82.2353 175.375 79.0388 176.366 76.7398L174.529 75.9482ZM172.848 86.392V100.728H174.848V86.392H172.848ZM246.334 119.544L245.684 120.304L245.691 120.31L246.334 119.544ZM241.662 109.176L240.663 109.224L240.664 109.25L240.667 109.276L241.662 109.176ZM242.302 107.128L243.009 107.835L243.024 107.82L243.039 107.804L242.302 107.128ZM246.27 107.064L245.53 107.737L245.562 107.772L245.597 107.804L246.27 107.064ZM247.038 109.048L246.039 109.096L246.04 109.126L246.044 109.157L247.038 109.048ZM250.046 115.64L249.436 116.433L249.447 116.441L249.459 116.45L250.046 115.64ZM287.742 115.064L287.025 114.366L287.025 114.366L287.742 115.064ZM287.742 97.656L287.025 98.3537L287.034 98.3631L287.742 97.656ZM246.398 67.64L245.696 66.927L246.398 67.64ZM293.886 76.664L292.89 76.7536L292.892 76.7796L292.896 76.8054L293.886 76.664ZM293.374 78.776L294.081 79.4831L294.096 79.4677L294.111 79.4517L293.374 78.776ZM289.342 78.84L288.602 79.5127L288.618 79.5303L288.634 79.5471L289.342 78.84ZM288.51 76.792L287.514 76.8825L287.516 76.9081L287.52 76.9334L288.51 76.792ZM285.822 70.904L285.236 71.7147L285.822 70.904ZM250.174 71.48L249.476 70.7629L249.466 70.7729L250.174 71.48ZM250.174 87.608L249.466 88.3152L249.477 88.325L250.174 87.608ZM291.582 93.816L290.874 94.5231L291.582 93.816ZM291.582 118.904L292.289 119.611L292.294 119.605L291.582 118.904ZM258.046 121.872C253.006 121.872 249.371 120.786 246.976 118.778L245.691 120.31C248.587 122.739 252.76 123.872 258.046 123.872V121.872ZM246.983 118.784C244.593 116.741 243.109 113.56 242.657 109.076L240.667 109.276C241.153 114.093 242.783 117.825 245.684 120.304L246.983 118.784ZM242.66 109.128C242.626 108.411 242.802 108.042 243.009 107.835L241.594 106.421C240.863 107.152 240.612 108.149 240.663 109.224L242.66 109.128ZM243.039 107.804C243.267 107.554 243.648 107.36 244.35 107.36V105.36C243.259 105.36 242.274 105.678 241.564 106.452L243.039 107.804ZM244.35 107.36C245.023 107.36 245.352 107.541 245.53 107.737L247.01 106.391C246.334 105.649 245.383 105.36 244.35 105.36V107.36ZM245.597 107.804C245.801 107.989 246.003 108.354 246.039 109.096L248.036 109C247.986 107.95 247.677 106.992 246.942 106.324L245.597 107.804ZM246.044 109.157C246.4 112.409 247.469 114.92 249.436 116.433L250.655 114.847C249.294 113.8 248.358 111.916 248.032 108.939L246.044 109.157ZM249.459 116.45C251.42 117.872 254.344 118.496 258.046 118.496V116.496C254.494 116.496 252.084 115.883 250.633 114.83L249.459 116.45ZM258.046 118.496H279.038V116.496H258.046V118.496ZM279.038 118.496C283.321 118.496 286.583 117.688 288.458 115.762L287.025 114.366C285.743 115.683 283.202 116.496 279.038 116.496V118.496ZM288.458 115.762C290.359 113.811 291.174 110.573 291.174 106.36H289.174C289.174 110.424 288.367 112.989 287.025 114.366L288.458 115.762ZM291.174 106.36C291.174 102.112 290.362 98.8624 288.449 96.9489L287.034 98.3631C288.364 99.6923 289.174 102.246 289.174 106.36H291.174ZM288.458 96.9584C286.583 95.0322 283.321 94.224 279.038 94.224V96.224C283.202 96.224 285.743 97.0371 287.025 98.3536L288.458 96.9584ZM279.038 94.224H258.302V96.224H279.038V94.224ZM258.302 94.224C253.059 94.224 249.397 92.9945 247.099 90.735L245.696 92.161C248.519 94.9362 252.792 96.224 258.302 96.224V94.224ZM247.099 90.735C244.807 88.4816 243.558 84.8481 243.558 79.608H241.558C241.558 85.1199 242.868 89.3798 245.696 92.161L247.099 90.735ZM243.558 79.608C243.558 74.2771 244.81 70.6039 247.099 68.353L245.696 66.927C242.865 69.7108 241.558 74.0162 241.558 79.608H243.558ZM247.099 68.353C249.397 66.0935 253.059 64.864 258.302 64.864V62.864C252.792 62.864 248.519 64.1518 245.696 66.927L247.099 68.353ZM258.302 64.864H278.398V62.864H258.302V64.864ZM278.398 64.864C283.041 64.864 286.461 65.9016 288.801 67.8348C291.123 69.754 292.523 72.6749 292.89 76.7536L294.882 76.5744C294.481 72.1198 292.915 68.6407 290.075 66.2932C287.251 63.9597 283.311 62.864 278.398 62.864V64.864ZM292.896 76.8054C292.995 77.5016 292.846 77.8722 292.636 78.1003L294.111 79.4517C294.84 78.6558 295.032 77.6184 294.876 76.5226L292.896 76.8054ZM292.666 78.0689C292.443 78.2925 292.052 78.48 291.326 78.48V80.48C292.391 80.48 293.366 80.1981 294.081 79.4831L292.666 78.0689ZM291.326 78.48C290.567 78.48 290.214 78.2978 290.049 78.1329L288.634 79.5471C289.323 80.2355 290.292 80.48 291.326 80.48V78.48ZM290.082 78.1673C289.836 77.8969 289.611 77.4295 289.5 76.6506L287.52 76.9334C287.664 77.9465 287.994 78.8445 288.602 79.5127L290.082 78.1673ZM289.505 76.7015C289.236 73.741 288.274 71.4413 286.407 70.0933L285.236 71.7147C286.442 72.5853 287.271 74.211 287.514 76.8825L289.505 76.7015ZM286.407 70.0933C284.611 68.7961 281.874 68.24 278.398 68.24V70.24C281.748 70.24 283.96 70.7932 285.236 71.7147L286.407 70.0933ZM278.398 68.24H258.302V70.24H278.398V68.24ZM258.302 68.24C254.35 68.24 251.302 68.9882 249.477 70.763L250.871 72.197C252.117 70.9852 254.488 70.24 258.302 70.24V68.24ZM249.466 70.7729C247.678 72.5609 246.934 75.6223 246.934 79.608H248.934C248.934 75.743 249.682 73.3857 250.881 72.1871L249.466 70.7729ZM246.934 79.608C246.934 83.516 247.681 86.53 249.466 88.3151L250.881 86.9009C249.679 85.6993 248.934 83.38 248.934 79.608H246.934ZM249.477 88.325C251.302 90.0998 254.35 90.848 258.302 90.848V88.848C254.488 88.848 252.117 88.1028 250.871 86.891L249.477 88.325ZM258.302 90.848H279.038V88.848H258.302V90.848ZM279.038 90.848C284.627 90.848 288.495 92.1441 290.874 94.5231L292.289 93.1089C289.377 90.1972 284.883 88.848 279.038 88.848V90.848ZM290.874 94.5231C293.253 96.9021 294.55 100.77 294.55 106.36H296.55C296.55 100.515 295.2 96.0206 292.289 93.1089L290.874 94.5231ZM294.55 106.36C294.55 111.903 293.255 115.778 290.869 118.203L292.294 119.605C295.199 116.654 296.55 112.167 296.55 106.36H294.55ZM290.874 118.197C288.495 120.576 284.627 121.872 279.038 121.872V123.872C284.883 123.872 289.377 122.523 292.289 119.611L290.874 118.197ZM279.038 121.872H258.046V123.872H279.038V121.872Z" fill="white" mask="url(#path-3-outside-1_284_3)"/>
<path d="M319.023 136.024C318.879 136.024 318.759 135.976 318.663 135.88C318.567 135.784 318.519 135.664 318.519 135.52V121.792H313.263C313.119 121.792 312.999 121.744 312.903 121.648C312.807 121.552 312.759 121.432 312.759 121.288C312.759 121.144 312.807 121.024 312.903 120.928C312.999 120.832 313.119 120.784 313.263 120.784H324.783C324.927 120.784 325.047 120.832 325.143 120.928C325.239 121.024 325.287 121.144 325.287 121.288C325.287 121.432 325.239 121.552 325.143 121.648C325.047 121.744 324.927 121.792 324.783 121.792H319.527V135.52C319.527 135.664 319.479 135.784 319.383 135.88C319.287 135.976 319.167 136.024 319.023 136.024ZM328.305 136C327.969 136 327.801 135.832 327.801 135.496V121.312C327.801 120.976 327.969 120.808 328.305 120.808H337.425C337.761 120.808 337.929 120.976 337.929 121.312C337.929 121.648 337.761 121.816 337.425 121.816H328.809V127.792H334.593C334.929 127.792 335.097 127.96 335.097 128.296C335.097 128.632 334.929 128.8 334.593 128.8H328.809V134.992H337.425C337.761 134.992 337.929 135.16 337.929 135.496C337.929 135.832 337.761 136 337.425 136H328.305ZM339.558 135.952C339.262 135.808 339.174 135.584 339.294 135.28L345.318 121.192C345.414 120.936 345.606 120.808 345.894 120.808H345.966C346.23 120.808 346.422 120.936 346.542 121.192L352.542 135.28C352.678 135.584 352.59 135.808 352.278 135.952C351.974 136.08 351.758 135.992 351.63 135.688L349.938 131.704H341.946L340.23 135.688C340.102 135.992 339.878 136.08 339.558 135.952ZM342.378 130.696H349.506L345.966 122.392L342.378 130.696ZM355.751 136C355.415 136 355.247 135.832 355.247 135.496V121.312C355.247 120.976 355.415 120.808 355.751 120.808C356.015 120.808 356.215 120.92 356.351 121.144L362.423 130.48L362.183 130.504L368.255 121.144C368.391 120.92 368.591 120.808 368.855 120.808C369.175 120.808 369.335 120.976 369.335 121.312V135.496C369.335 135.832 369.167 136 368.831 136C368.495 136 368.327 135.832 368.327 135.496V122.32L368.615 122.416L362.903 131.2C362.767 131.424 362.567 131.536 362.303 131.536C362.039 131.536 361.839 131.424 361.703 131.2L355.991 122.416L356.255 122.536V135.496C356.255 135.832 356.087 136 355.751 136Z" fill="black"/>
<line x1="351.399" y1="73.5" x2="381.263" y2="73.5" stroke="white"/>
<line x1="366.831" y1="59" x2="366.831" y2="89" stroke="white"/>
<defs>
<linearGradient id="paint0_linear_284_3" x1="217.509" y1="32" x2="217.509" y2="156" gradientUnits="userSpaceOnUse">
<stop stop-color="#0068FF"/>
<stop offset="1" stop-color="#02C166"/>
</linearGradient>
</defs>
</svg>
