<svg width="34" height="31" viewBox="0 0 34 31" fill="none" xmlns="http://www.w3.org/2000/svg">
<path d="M26.9093 1.794C27.8693 0.866005 28.8133 0.866005 29.7413 1.794C30.7013 2.75401 30.7013 3.71401 29.7413 4.674L5.11728 29.298C4.15728 30.258 3.21328 30.258 2.28528 29.298C1.32528 28.338 1.32528 27.394 2.28528 26.466L26.9093 1.794ZM4.68528 4.53001C3.75728 3.57001 3.75728 2.62601 4.68528 1.69801C5.64528 0.738005 6.60528 0.738005 7.56528 1.69801L32.1893 26.322C33.1493 27.282 33.1493 28.226 32.1893 29.154C31.2293 30.114 30.2853 30.114 29.3573 29.154L4.68528 4.53001Z" fill="#FF0000" fill-opacity="0.85"/>
</svg>
